<svg data-v-423bf9ae="" xmlns="http://www.w3.org/2000/svg" viewBox="0 0 549 90" class="iconLeft"><!----><!----><!----><g data-v-423bf9ae="" id="6fca244e-3c40-480b-b586-791421a2cb72" fill="white" transform="matrix(4.784689009770447,0,0,4.784689009770447,111.32353065528463,4.617225914266804)"><path d="M0.94 12.29L0.94 2.69L5.52 2.69L5.52 2.69Q7.13 2.69 7.94 3.51L7.94 3.51L7.94 3.51Q8.75 4.33 8.75 5.82L8.75 5.82L8.75 5.82Q8.75 7.32 7.90 8.15L7.90 8.15L7.90 8.15Q7.06 8.99 5.38 8.99L5.38 8.99L2.97 8.99L2.97 12.29L0.94 12.29ZM2.97 7.27L5.33 7.27L5.33 7.27Q5.99 7.27 6.34 6.89L6.34 6.89L6.34 6.89Q6.69 6.51 6.69 5.82L6.69 5.82L6.69 5.82Q6.69 5.15 6.34 4.78L6.34 4.78L6.34 4.78Q5.99 4.41 5.33 4.41L5.33 4.41L2.97 4.41L2.97 7.27ZM10.33 12.29L10.33 4.93L11.97 4.93L12.12 6.12L12.22 6.12L12.22 6.12Q12.46 5.49 12.84 5.12L12.84 5.12L12.84 5.12Q13.22 4.76 13.83 4.76L13.83 4.76L13.83 4.76Q14.10 4.76 14.30 4.81L14.30 4.81L14.30 4.81Q14.50 4.86 14.56 4.89L14.56 4.89L14.56 6.68L14.03 6.68L14.03 6.68Q13.09 6.68 12.67 7.19L12.67 7.19L12.67 7.19Q12.25 7.70 12.25 8.74L12.25 8.74L12.25 12.29L10.33 12.29ZM17.47 12.46L17.47 12.46Q16.62 12.46 15.90 12.01L15.90 12.01L15.90 12.01Q15.19 11.56 15.19 10.39L15.19 10.39L15.19 10.39Q15.19 8.97 16.35 8.38L16.35 8.38L16.35 8.38Q17.51 7.78 19.64 7.78L19.64 7.78L19.64 7.27L19.64 7.27Q19.64 6.78 19.43 6.51L19.43 6.51L19.43 6.51Q19.21 6.24 18.61 6.24L18.61 6.24L18.61 6.24Q17.96 6.24 17.69 6.44L17.69 6.44L17.69 6.44Q17.42 6.64 17.42 6.90L17.42 6.90L17.42 7.11L15.57 7.11L15.57 7.11Q15.55 7.03 15.55 6.80L15.55 6.80L15.55 6.80Q15.55 5.88 16.37 5.32L16.37 5.32L16.37 5.32Q17.19 4.76 18.55 4.76L18.55 4.76L18.55 4.76Q20.06 4.76 20.81 5.38L20.81 5.38L20.81 5.38Q21.56 5.99 21.56 7.15L21.56 7.15L21.56 10.40L21.56 10.40Q21.56 10.65 21.70 10.77L21.70 10.77L21.70 10.77Q21.84 10.89 22.05 10.89L22.05 10.89L22.44 10.89L22.44 12.24L22.44 12.24Q21.99 12.46 21.34 12.46L21.34 12.46L21.34 12.46Q20.76 12.46 20.38 12.21L20.38 12.21L20.38 12.21Q19.99 11.96 19.85 11.49L19.85 11.49L19.77 11.49L19.77 11.49Q19.36 11.97 18.84 12.21L18.84 12.21L18.84 12.21Q18.31 12.46 17.47 12.46L17.47 12.46ZM18.07 10.95L18.07 10.95Q18.89 10.95 19.26 10.49L19.26 10.49L19.26 10.49Q19.64 10.04 19.64 9.28L19.64 9.28L19.64 9.06L19.64 9.06Q17.14 9.06 17.14 10.18L17.14 10.18L17.14 10.18Q17.14 10.53 17.37 10.74L17.37 10.74L17.37 10.74Q17.60 10.95 18.07 10.95L18.07 10.95ZM26.61 12.46L26.61 12.46Q24.85 12.46 23.98 11.52L23.98 11.52L23.98 11.52Q23.10 10.58 23.10 8.61L23.10 8.61L23.10 8.61Q23.10 6.65 23.98 5.71L23.98 5.71L23.98 5.71Q24.85 4.76 26.61 4.76L26.61 4.76L26.61 4.76Q28.08 4.76 28.96 5.51L28.96 5.51L28.96 5.51Q29.83 6.26 29.83 7.70L29.83 7.70L27.90 7.70L27.90 7.70Q27.90 7.03 27.55 6.66L27.55 6.66L27.55 6.66Q27.20 6.30 26.57 6.30L26.57 6.30L26.57 6.30Q25.79 6.30 25.42 6.85L25.42 6.85L25.42 6.85Q25.05 7.41 25.05 8.50L25.05 8.50L25.05 8.72L25.05 8.72Q25.05 9.81 25.43 10.37L25.43 10.37L25.43 10.37Q25.82 10.92 26.67 10.92L26.67 10.92L26.67 10.92Q27.27 10.92 27.63 10.55L27.63 10.55L27.63 10.55Q27.99 10.18 27.99 9.52L27.99 9.52L29.83 9.52L29.83 9.52Q29.83 10.96 28.97 11.71L28.97 11.71L28.97 11.71Q28.10 12.46 26.61 12.46L26.61 12.46ZM33.32 12.46L33.32 12.46Q32.28 12.46 31.84 11.90L31.84 11.90L31.84 11.90Q31.39 11.34 31.39 10.49L31.39 10.49L31.39 6.50L30.51 6.50L30.51 4.93L31.43 4.93L31.75 2.86L33.31 2.86L33.31 4.93L34.58 4.93L34.58 6.50L33.31 6.50L33.31 10.29L33.31 10.29Q33.31 10.89 33.91 10.89L33.91 10.89L34.58 10.89L34.58 12.24L34.58 12.24Q34.34 12.32 33.98 12.39L33.98 12.39L33.98 12.39Q33.63 12.46 33.32 12.46L33.32 12.46ZM36.01 3.91L36.01 2.17L37.93 2.17L37.93 3.91L36.01 3.91ZM36.01 12.29L36.01 4.93L37.93 4.93L37.93 12.29L36.01 12.29ZM42.95 12.46L42.95 12.46Q41.19 12.46 40.31 11.52L40.31 11.52L40.31 11.52Q39.44 10.58 39.44 8.61L39.44 8.61L39.44 8.61Q39.44 6.65 40.31 5.71L40.31 5.71L40.31 5.71Q41.19 4.76 42.95 4.76L42.95 4.76L42.95 4.76Q44.42 4.76 45.30 5.51L45.30 5.51L45.30 5.51Q46.17 6.26 46.17 7.70L46.17 7.70L44.24 7.70L44.24 7.70Q44.24 7.03 43.89 6.66L43.89 6.66L43.89 6.66Q43.54 6.30 42.91 6.30L42.91 6.30L42.91 6.30Q42.13 6.30 41.76 6.85L41.76 6.85L41.76 6.85Q41.38 7.41 41.38 8.50L41.38 8.50L41.38 8.72L41.38 8.72Q41.38 9.81 41.77 10.37L41.77 10.37L41.77 10.37Q42.15 10.92 43.01 10.92L43.01 10.92L43.01 10.92Q43.61 10.92 43.97 10.55L43.97 10.55L43.97 10.55Q44.32 10.18 44.32 9.52L44.32 9.52L46.17 9.52L46.17 9.52Q46.17 10.96 45.30 11.71L45.30 11.71L45.30 11.71Q44.44 12.46 42.95 12.46L42.95 12.46ZM50.72 12.46L50.72 12.46Q48.94 12.46 48.07 11.52L48.07 11.52L48.07 11.52Q47.19 10.58 47.19 8.61L47.19 8.61L47.19 8.61Q47.19 6.64 48.07 5.70L48.07 5.70L48.07 5.70Q48.94 4.76 50.72 4.76L50.72 4.76L50.72 4.76Q52.36 4.76 53.17 5.71L53.17 5.71L53.17 5.71Q53.98 6.65 53.98 8.61L53.98 8.61L53.98 9.06L49.14 9.06L49.14 9.06Q49.17 10.04 49.53 10.51L49.53 10.51L49.53 10.51Q49.90 10.98 50.75 10.98L50.75 10.98L50.75 10.98Q51.35 10.98 51.72 10.64L51.72 10.64L51.72 10.64Q52.09 10.30 52.09 9.69L52.09 9.69L53.98 9.69L53.98 9.69Q53.98 11.07 53.09 11.77L53.09 11.77L53.09 11.77Q52.19 12.46 50.72 12.46L50.72 12.46ZM49.17 7.78L52.00 7.78L52.00 7.78Q52.00 6.26 50.72 6.26L50.72 6.26L50.72 6.26Q49.99 6.26 49.62 6.64L49.62 6.64L49.62 6.64Q49.25 7.01 49.17 7.78L49.17 7.78ZM62.30 12.46L62.30 12.46Q60.76 12.46 59.89 11.82L59.89 11.82L59.89 11.82Q59.01 11.19 59.01 10.12L59.01 10.12L59.02 9.95L60.89 9.95L60.89 10.05L60.89 10.05Q60.90 10.54 61.33 10.76L61.33 10.76L61.33 10.76Q61.75 10.98 62.37 10.98L62.37 10.98L62.37 10.98Q62.94 10.98 63.35 10.82L63.35 10.82L63.35 10.82Q63.76 10.67 63.76 10.32L63.76 10.32L63.76 10.32Q63.76 9.93 63.34 9.73L63.34 9.73L63.34 9.73Q62.93 9.53 62.05 9.34L62.05 9.34L62.05 9.34Q61.14 9.13 60.56 8.91L60.56 8.91L60.56 8.91Q59.99 8.69 59.57 8.23L59.57 8.23L59.57 8.23Q59.15 7.77 59.15 7L59.15 7L59.15 7Q59.15 5.92 60.05 5.34L60.05 5.34L60.05 5.34Q60.96 4.76 62.38 4.76L62.38 4.76L62.38 4.76Q63.71 4.76 64.58 5.30L64.58 5.30L64.58 5.30Q65.45 5.84 65.45 6.76L65.45 6.76L65.44 7.08L63.57 7.08L63.57 7.06L63.57 7.06Q63.56 6.65 63.22 6.45L63.22 6.45L63.22 6.45Q62.89 6.24 62.31 6.24L62.31 6.24L62.31 6.24Q61.74 6.24 61.40 6.40L61.40 6.40L61.40 6.40Q61.07 6.55 61.07 6.83L61.07 6.83L61.07 6.83Q61.07 7.18 61.45 7.35L61.45 7.35L61.45 7.35Q61.84 7.52 62.69 7.69L62.69 7.69L62.69 7.69Q63.63 7.90 64.22 8.11L64.22 8.11L64.22 8.11Q64.81 8.32 65.24 8.79L65.24 8.79L65.24 8.79Q65.67 9.27 65.67 10.08L65.67 10.08L65.67 10.08Q65.67 12.46 62.30 12.46L62.30 12.46ZM67.14 12.29L67.14 2.17L69.06 2.17L69.06 5.78L69.16 5.78L69.16 5.78Q70 4.76 71.32 4.76L71.32 4.76L71.32 4.76Q72.45 4.76 73.10 5.38L73.10 5.38L73.10 5.38Q73.75 5.99 73.75 7.35L73.75 7.35L73.75 12.29L71.83 12.29L71.83 7.76L71.83 7.76Q71.83 7.07 71.51 6.76L71.51 6.76L71.51 6.76Q71.19 6.45 70.56 6.45L70.56 6.45L70.56 6.45Q69.92 6.45 69.49 6.91L69.49 6.91L69.49 6.91Q69.06 7.36 69.06 8.04L69.06 8.04L69.06 12.29L67.14 12.29ZM78.97 12.46L78.97 12.46Q77.08 12.46 76.16 11.52L76.16 11.52L76.16 11.52Q75.24 10.58 75.24 8.61L75.24 8.61L75.24 8.61Q75.24 6.64 76.16 5.70L76.16 5.70L76.16 5.70Q77.08 4.76 78.97 4.76L78.97 4.76L78.97 4.76Q80.86 4.76 81.80 5.70L81.80 5.70L81.80 5.70Q82.73 6.64 82.73 8.61L82.73 8.61L82.73 8.61Q82.73 10.58 81.80 11.52L81.80 11.52L81.80 11.52Q80.86 12.46 78.97 12.46L78.97 12.46ZM78.97 10.89L78.97 10.89Q79.91 10.89 80.33 10.35L80.33 10.35L80.33 10.35Q80.75 9.81 80.75 8.72L80.75 8.72L80.75 8.50L80.75 8.50Q80.75 7.41 80.33 6.87L80.33 6.87L80.33 6.87Q79.91 6.33 78.97 6.33L78.97 6.33L78.97 6.33Q78.04 6.33 77.62 6.87L77.62 6.87L77.62 6.87Q77.21 7.41 77.21 8.50L77.21 8.50L77.21 8.72L77.21 8.72Q77.21 9.81 77.62 10.35L77.62 10.35L77.62 10.35Q78.04 10.89 78.97 10.89L78.97 10.89ZM84.25 14.71L84.25 4.93L85.89 4.93L86.02 5.89L86.11 5.89L86.11 5.89Q86.46 5.33 87.05 5.05L87.05 5.05L87.05 5.05Q87.64 4.76 88.35 4.76L88.35 4.76L88.35 4.76Q89.75 4.76 90.52 5.72L90.52 5.72L90.52 5.72Q91.29 6.68 91.29 8.62L91.29 8.62L91.29 8.62Q91.29 10.53 90.52 11.49L90.52 11.49L90.52 11.49Q89.74 12.46 88.45 12.46L88.45 12.46L88.45 12.46Q87.71 12.46 87.14 12.19L87.14 12.19L87.14 12.19Q86.58 11.93 86.25 11.44L86.25 11.44L86.17 11.44L86.17 14.71L84.25 14.71ZM87.74 10.79L87.74 10.79Q88.59 10.79 88.96 10.28L88.96 10.28L88.96 10.28Q89.32 9.77 89.32 8.74L89.32 8.74L89.32 8.48L89.32 8.48Q89.32 7.45 88.96 6.94L88.96 6.94L88.96 6.94Q88.59 6.43 87.74 6.43L87.74 6.43L87.74 6.43Q86.17 6.43 86.17 8.48L86.17 8.48L86.17 8.71L86.17 8.71Q86.17 10.79 87.74 10.79L87.74 10.79Z"></path></g><!----><g data-v-423bf9ae="" id="e3e4b706-1c57-4c52-aeed-faf602d78b61" transform="matrix(2.994410458179972,0,0,2.994410458179972,0.08943266912044834,-1.9385669710569857)" stroke="none" fill="white"><path d="M17.572 23.933l4.106 7.095L32 13.189h-8.981V7.582L11.51.972 0 7.582v13.222l11.51 6.611 6.062-3.482zm10.96-8.744l-6.855 11.846-6.855-11.846h13.71z"></path></g><!----></svg>